<svg width="24" height="24" viewBox="0 0 24 24" fill="none" xmlns="http://www.w3.org/2000/svg">
<path d="M12 2C15.3137 2 18 4.68629 18 8C18 10.3303 16.6704 12.3481 14.7295 13.3418C18.9253 14.4111 22 17.8813 22 22H21C21 17.6782 17.0723 14 12 14C6.92773 14 3 17.6782 3 22H2C2 17.8816 5.07415 14.4113 9.26953 13.3418C7.32905 12.3479 6 10.33 6 8C6 4.68629 8.68629 2 12 2ZM12 3C9.23858 3 7 5.23858 7 8C7 10.7614 9.23858 13 12 13C14.7614 13 17 10.7614 17 8C17 5.23858 14.7614 3 12 3Z" fill="#D9D9D9"/>
</svg>
