<svg width="24" height="24" viewBox="0 0 24 24" fill="none" xmlns="http://www.w3.org/2000/svg">
<path d="M12.0001 2.40039C12.2312 2.40039 12.4424 2.53261 12.542 2.74121L15.2813 8.4834L21.5889 9.31543C21.8182 9.34565 22.0096 9.5047 22.0811 9.72461C22.1525 9.94441 22.0914 10.1855 21.9239 10.3447L17.3087 14.7246L18.4678 20.9805C18.5099 21.2078 18.4175 21.4393 18.2305 21.5752C18.0434 21.7111 17.7951 21.7275 17.5919 21.6172L12.0001 18.582L6.40826 21.6172C6.20503 21.7274 5.95664 21.7111 5.76958 21.5752C5.58266 21.4393 5.4902 21.2078 5.53228 20.9805L6.69048 14.7246L2.07622 10.3447C1.90877 10.1856 1.84766 9.94437 1.91899 9.72461C1.99044 9.50472 2.18197 9.3457 2.41118 9.31543L8.71783 8.4834L11.4581 2.74121L11.501 2.66699C11.6112 2.50181 11.7978 2.40043 12.0001 2.40039Z" fill="#FF8C37"/>
</svg>
